<?xml version="1.0" encoding="UTF-8" standalone="no"?>
<!-- Created with Inkscape (http://www.inkscape.org/) -->

<svg
   width="512"
   height="512"
   viewBox="0 0 512 512"
   version="1.1"
   id="svg5"
   sodipodi:docname="eden works and partners (bright).svg"
   inkscape:version="1.1.1 (3bf5ae0d25, 2021-09-20)"
   inkscape:export-filename="C:\Users\Eden\Desktop\eden works and partners.png"
   inkscape:export-xdpi="291.70001"
   inkscape:export-ydpi="291.70001"
   xmlns:inkscape="http://www.inkscape.org/namespaces/inkscape"
   xmlns:sodipodi="http://sodipodi.sourceforge.net/DTD/sodipodi-0.dtd"
   xmlns="http://www.w3.org/2000/svg"
   xmlns:svg="http://www.w3.org/2000/svg">
  <sodipodi:namedview
     id="namedview7"
     pagecolor="#ffffff"
     bordercolor="#666666"
     borderopacity="1.0"
     inkscape:pageshadow="2"
     inkscape:pageopacity="0"
     inkscape:pagecheckerboard="0"
     inkscape:document-units="px"
     showgrid="true"
     inkscape:snap-bbox="true"
     inkscape:bbox-paths="true"
     inkscape:bbox-nodes="true"
     inkscape:snap-bbox-edge-midpoints="true"
     inkscape:snap-bbox-midpoints="true"
     inkscape:object-paths="true"
     inkscape:snap-intersection-paths="true"
     inkscape:snap-smooth-nodes="true"
     inkscape:snap-midpoints="true"
     inkscape:snap-object-midpoints="true"
     inkscape:snap-center="false"
     inkscape:snap-text-baseline="false"
     inkscape:snap-page="true"
     inkscape:snap-nodes="true"
     inkscape:snap-others="true"
     inkscape:object-nodes="true"
     inkscape:zoom="0.5"
     inkscape:cx="-155"
     inkscape:cy="373"
     inkscape:window-width="1920"
     inkscape:window-height="1009"
     inkscape:window-x="-8"
     inkscape:window-y="-8"
     inkscape:window-maximized="1"
     inkscape:current-layer="layer1" />
  <defs
     id="defs2" />
  <g
     inkscape:label="Layer 1"
     inkscape:groupmode="layer"
     id="layer1">
    <path
       id="path1288"
       style="fill:#000000;fill-rule:evenodd;stroke:none;stroke-width:12.4872;stroke-linejoin:round"
       d="m 178.63672,114.63477 v 58.3164 h 15.1582 v -35.73242 h 0.15625 l 27.76563,35.73242 H 236.875 V 173 h 21.81445 V 146.33398 H 265 v 2.00977 h 0.0703 c 0.53172,-0.80913 1.24684,-1.42177 2.14844,-1.83789 0.9016,-0.43925 1.83763,-0.68033 2.80859,-0.72656 h 0.20899 0.20703 c 2.65857,0 4.82183,0.95816 6.48633,2.87695 1.66449,1.89567 2.49609,4.11522 2.49609,6.6582 0,2.5661 -0.8316,4.77361 -2.49609,6.62305 -1.64138,1.84944 -3.78057,2.77539 -6.41602,2.77539 h -0.27734 -0.24219 c -0.92472,-0.0693 -1.83863,-0.27823 -2.74023,-0.625 C 266.37544,163.718 265.62419,163.17564 265,162.45898 V 173 h 146.68945 v -58.36523 h -82.25976 v 14.77343 l 6.55469,-6.41601 h 8.63476 l -8.91211,8.21875 9.4668,9.57031 h -8.84375 l -6.90039,-7.24805 v 7.24805 h -6.31055 v -26.14648 h -38.83789 l -8.35742,26.14648 h -6.93555 l -4.57812,-15.1543 h -0.0684 l -5.13282,15.1543 h -6.90039 l -7.80273,-26.14648 H 236.875 221.7168 v 35.65429 h -0.1543 l -27.76758,-35.65429 z m 72.94336,0 4.54297,16.88867 h 0.0684 l 5.48047,-16.88867 z m 15.5,0 5.13281,16.88867 h 0.0703 l 4.92383,-16.88867 z M 382.14258,118.5 c 6.67165,-2e-5 12.0801,5.40843 12.08008,12.08008 -0.004,5.41474 -3.60985,10.16561 -8.82422,11.625 v 2.19726 c -2.66406,0 -4.77344,1.125 -6.31055,2.28125 v -4.56445 h 0.33594 c -5.39675,-1.24549 -9.25515,-6.00148 -9.36133,-11.53906 -2e-5,-6.67165 5.40843,-12.0801 12.08008,-12.08008 z m -88.29102,3.90234 c 2.86664,0.0231 5.36338,0.86677 7.49024,2.53125 2.14997,1.64138 3.22461,3.97741 3.22461,7.00586 0,3.00534 -1.07464,5.32737 -3.22461,6.96875 -2.12686,1.64138 -4.6236,2.46289 -7.49024,2.46289 -2.84351,0 -5.34026,-0.80947 -7.49023,-2.42773 -2.14998,-1.64138 -3.22461,-3.97545 -3.22461,-7.00391 0,-3.02845 1.0626,-5.36448 3.18945,-7.00586 2.14998,-1.66449 4.65876,-2.49609 7.52539,-2.49609 z m 60.92774,0.0352 h 0.10351 0.10352 c 1.01719,0 2.01146,0.0924 2.98242,0.27734 0.98858,0.16094 1.94329,0.4489 2.86328,0.86133 l 0.0156,-0.0293 v 0.0352 c -0.005,-0.002 -0.0105,-0.004 -0.0156,-0.006 l -2.09961,3.99414 c -0.27741,-0.1387 -0.59072,-0.26722 -0.9375,-0.38281 -0.32365,-0.11559 -0.65909,-0.20799 -1.00586,-0.27734 -0.2543,-0.0463 -0.50742,-0.0804 -0.76172,-0.10352 -0.23118,-0.0463 -0.46218,-0.0703 -0.69336,-0.0703 -0.11558,0 -0.2441,0.0119 -0.38281,0.0352 -0.11559,0 -0.23011,0.0241 -0.3457,0.0703 -0.32365,0.0694 -0.61289,0.19592 -0.86719,0.38086 -0.25429,0.16182 -0.38086,0.40486 -0.38086,0.72851 0,0.39301 0.16073,0.69429 0.48438,0.90235 0.34677,0.18494 0.72841,0.32354 1.14453,0.41601 0.23118,0.0693 0.45209,0.12564 0.66015,0.17188 0.20806,0.0231 0.39287,0.0472 0.55469,0.0703 1.47956,0.30053 2.70483,0.84294 3.67578,1.6289 0.99408,0.78604 1.49024,2.0012 1.49024,3.64258 0,2.26556 -0.8316,3.91867 -2.4961,4.95899 -1.6645,1.01719 -3.50241,1.55955 -5.51367,1.6289 h -0.20898 -0.17383 c -1.27149,0 -2.51889,-0.17275 -3.74414,-0.51953 -1.20213,-0.34676 -2.34712,-0.8449 -3.43359,-1.49218 l 2.28906,-4.4375 c 0.393,0.30053 0.84297,0.57773 1.35156,0.83203 0.5086,0.23118 1.02883,0.4381 1.56055,0.62304 0.36988,0.1156 0.7294,0.20799 1.07617,0.27735 0.34677,0.0693 0.6822,0.10547 1.00586,0.10547 h 0.27734 l 0.3457,-0.0703 c 0.34677,-0.0693 0.6601,-0.20795 0.9375,-0.41601 0.27743,-0.20806 0.41602,-0.4973 0.41602,-0.86719 0,-0.50859 -0.24295,-0.86616 -0.72852,-1.07422 -0.48547,-0.23118 -1.06395,-0.41598 -1.73437,-0.55469 -0.2543,-0.0463 -0.50743,-0.0925 -0.76172,-0.13867 -0.23118,-0.0693 -0.47421,-0.13963 -0.72851,-0.20898 -0.99408,-0.2543 -1.90799,-0.69418 -2.74024,-1.31836 -0.80913,-0.64731 -1.21289,-1.76814 -1.21289,-3.36328 0,-2.14998 0.79743,-3.73281 2.39258,-4.75 1.59514,-1.0172 3.34065,-1.53744 5.23633,-1.56055 z m -34.01953,0.3125 v 6.06836 c -0.0925,-0.0231 -0.18487,-0.0573 -0.27735,-0.10352 -0.0693,-0.0462 -0.14971,-0.0823 -0.24219,-0.10546 -0.34676,-0.13873 -0.69424,-0.23112 -1.04101,-0.27735 -0.34677,-0.0463 -0.71637,-0.0684 -1.10938,-0.0684 -1.75696,0 -2.924,0.52024 -3.50195,1.56055 -0.57795,1.01719 -0.86719,2.28867 -0.86719,3.81445 v 7.14258 h -6.31054 v -17.78906 h 6.31054 v 2.91211 h 0.0703 c 0.60106,-1.06343 1.3985,-1.84894 2.39257,-2.35742 1.0172,-0.50863 2.13801,-0.76368 3.36329,-0.76368 z m -26.90821,5.13086 c -1.27149,0.0231 -2.26577,0.44089 -2.98242,1.25 -0.71666,0.78601 -1.07422,1.72205 -1.07422,2.80859 0,1.13279 0.35756,2.08086 1.07422,2.84375 0.71665,0.7629 1.71093,1.14258 2.98242,1.14258 1.29461,0 2.28888,-0.37968 2.98242,-1.14258 0.71666,-0.76289 1.07422,-1.71096 1.07422,-2.84375 0,-1.08654 -0.35756,-2.02258 -1.07422,-2.80859 -0.69354,-0.80913 -1.68781,-1.21484 -2.98242,-1.21484 z m 29.26758,15.67578 h 6.31055 v 2.77734 h 3.57226 v 5.20118 h -3.57226 v 12.58789 h -6.31055 v -12.58789 h -2.04687 v -5.20118 l 2.04687,-0.21093 z m -32.94336,2.22266 h 0.3457 c 0.11559,0 0.23207,0.0101 0.34766,0.0332 0.9016,0.0693 1.7794,0.30035 2.63477,0.69336 0.87848,0.36989 1.60759,0.90216 2.18554,1.5957 v -1.76758 H 302 v 17.78907 h -6.31055 v -1.97657 h -0.0703 c -0.50859,0.83225 -1.20159,1.45692 -2.08008,1.87305 -0.87848,0.39301 -1.79239,0.61197 -2.74023,0.6582 -0.0925,0.0231 -0.18488,0.0352 -0.27735,0.0352 h -0.27734 c -2.63545,0 -4.79676,-0.93603 -6.48437,-2.80859 -1.6645,-1.89568 -2.4961,-4.11523 -2.4961,-6.65821 0,-2.54298 0.81957,-4.75048 2.46094,-6.62304 1.6645,-1.89568 3.81572,-2.84375 6.45117,-2.84375 z m 56.9043,0 c 2.40427,0 4.11562,0.68096 5.13281,2.04492 1.04031,1.36396 1.56055,3.14363 1.56055,5.33984 v 10.95899 h -6.3125 v -8.66993 -0.17382 -0.20703 -0.65821 c 0,-0.23118 -0.0101,-0.46413 -0.0332,-0.69531 -0.0462,-0.71666 -0.25508,-1.3755 -0.625,-1.97656 -0.36988,-0.62419 -1.09704,-0.93555 -2.18359,-0.93555 -1.27149,0 -2.1392,0.4158 -2.60156,1.24805 -0.46236,0.80913 -0.69336,1.76924 -0.69336,2.8789 v 9.18946 h -6.31055 v -17.78907 h 6.31055 v 2.28711 h 0.0684 c 0.73977,-1.06342 1.56129,-1.80262 2.46289,-2.21875 0.92472,-0.41612 1.99935,-0.62304 3.22461,-0.62304 z m 19.38476,0 c 3.09782,0 5.49012,0.88983 7.17774,2.66992 1.71073,1.78009 2.5664,4.18444 2.5664,7.21289 v 0.62305 h -13.28125 c 0,1.2946 0.33544,2.28888 1.00586,2.98242 0.67042,0.67042 1.65266,1.00586 2.94727,1.00586 0.67042,0 1.2489,-0.12657 1.73437,-0.38086 0.5086,-0.2543 0.93644,-0.6701 1.28321,-1.24805 l 6.06836,-0.0352 c -0.5086,2.12683 -1.64147,3.67552 -3.39844,4.64648 -1.73385,0.97095 -3.61796,1.45703 -5.65234,1.45703 -2.93599,0 -5.38654,-0.79744 -7.35157,-2.39258 -1.96503,-1.61826 -2.94726,-3.96632 -2.94726,-7.04101 0,-2.95911 0.91195,-5.28114 2.73828,-6.96875 1.84944,-1.68762 4.21963,-2.53125 7.10937,-2.53125 z m 36.13282,0 h 0.10351 0.10547 c 1.01719,0 2.01147,0.0924 2.98242,0.27734 0.98858,0.16093 1.94135,0.4489 2.86133,0.86133 l 0.0156,-0.0293 v 0.0352 c -0.005,-0.002 -0.0105,-0.004 -0.0156,-0.006 l -2.09961,3.99219 c -0.27741,-0.13871 -0.58878,-0.26528 -0.93555,-0.38086 -0.32365,-0.1156 -0.65908,-0.20799 -1.00585,-0.27735 -0.25431,-0.0462 -0.50938,-0.0804 -0.76368,-0.10351 -0.23118,-0.0462 -0.46218,-0.0703 -0.69336,-0.0703 -0.11559,0 -0.24215,0.012 -0.38086,0.0352 -0.11558,0 -0.23206,0.024 -0.34765,0.0703 -0.32366,0.0694 -0.61094,0.19592 -0.86524,0.38086 -0.2543,0.16183 -0.38281,0.40487 -0.38281,0.72852 0,0.39301 0.16268,0.69233 0.48633,0.90039 0.34677,0.18495 0.7284,0.32353 1.14453,0.41602 0.23118,0.0694 0.45014,0.12759 0.6582,0.17382 0.20806,0.0231 0.39286,0.0472 0.55469,0.0703 1.47955,0.30053 2.70482,0.8429 3.67578,1.6289 0.99408,0.78602 1.49219,1.99925 1.49219,3.64063 0,2.26556 -0.83355,3.91867 -2.49805,4.95898 -1.66449,1.01719 -3.5024,1.56151 -5.51367,1.63086 h -0.20703 -0.17383 c -1.27148,0 -2.52084,-0.17471 -3.74609,-0.52148 -1.20214,-0.34677 -2.3451,-0.84293 -3.43164,-1.49024 l 2.28906,-4.43945 c 0.393,0.30053 0.84296,0.57773 1.35156,0.83203 0.5086,0.23118 1.02884,0.44006 1.56055,0.625 0.36989,0.11559 0.72745,0.20799 1.07422,0.27734 0.34677,0.0694 0.68221,0.10352 1.00586,0.10352 h 0.27734 l 0.34766,-0.0684 c 0.34676,-0.0693 0.65812,-0.20796 0.93554,-0.41602 0.27742,-0.20806 0.41602,-0.4973 0.41602,-0.86718 0,-0.5086 -0.24304,-0.86616 -0.72852,-1.07422 -0.48548,-0.23118 -1.062,-0.41794 -1.73242,-0.55664 -0.2543,-0.0463 -0.50937,-0.0925 -0.76367,-0.13867 -0.23118,-0.0694 -0.47424,-0.13768 -0.72851,-0.20704 -0.99408,-0.2543 -1.90604,-0.69417 -2.73829,-1.31836 -0.80912,-0.6473 -1.21484,-1.76814 -1.21484,-3.36328 0,-2.14997 0.79744,-3.7328 2.39258,-4.75 1.59514,-1.01718 3.34065,-1.53742 5.23633,-1.56054 z m -83.05078,0.31054 v 6.06836 c -0.0925,-0.0231 -0.18488,-0.0573 -0.27735,-0.10351 -0.0693,-0.0462 -0.14971,-0.0804 -0.24219,-0.10352 -0.34676,-0.1387 -0.69424,-0.23111 -1.04101,-0.27734 -0.34677,-0.0463 -0.71637,-0.0703 -1.10938,-0.0703 -1.75697,0 -2.924,0.52023 -3.50195,1.56054 -0.57795,1.0172 -0.86719,2.28867 -0.86719,3.81446 v 7.14453 h -6.3125 v -17.78907 h 6.3125 v 2.91211 h 0.0684 c 0.60107,-1.06342 1.39851,-1.84882 2.39258,-2.35742 1.01719,-0.50859 2.13998,-0.76367 3.36523,-0.76367 z m 72.89062,0 v 6.06836 c -0.0925,-0.0231 -0.18487,-0.0573 -0.27734,-0.10351 -0.0693,-0.0462 -0.14972,-0.0804 -0.24219,-0.10352 -0.34677,-0.13871 -0.69425,-0.23111 -1.04102,-0.27734 -0.34677,-0.0463 -0.71636,-0.0703 -1.10937,-0.0703 -1.75697,0 -2.92396,0.52023 -3.50196,1.56054 -0.57794,1.01719 -0.86718,2.28867 -0.86718,3.81446 v 7.14453 h -6.31055 V 150.1875 c 0,0 2.91211,-3.25 6.31055,-3.25 v 2.30859 h 0.0684 c 0.60107,-1.06343 1.40046,-1.84882 2.39453,-2.35742 1.01719,-0.50859 2.13803,-0.76367 3.36328,-0.76367 z m -25.66016,3.78125 c -0.92472,0 -1.73419,0.24304 -2.42773,0.72852 -0.68419,0.45613 -1.11939,1.13881 -1.30859,2.04492 h 7.30664 c -0.16182,-0.83225 -0.58771,-1.50312 -1.28125,-2.01172 -0.67043,-0.5086 -1.4337,-0.76172 -2.28907,-0.76172 z m -3.73632,2.77344 h -0.01 v 0.0352 c 0.002,-0.0125 0.007,-0.0228 0.01,-0.0352 z m -94.19141,-1.42187 c -1.27149,0.0231 -2.26577,0.43893 -2.98242,1.24804 -0.71666,0.78602 -1.07617,1.72205 -1.07617,2.8086 0,1.13278 0.35951,2.08085 1.07617,2.84375 0.71665,0.76289 1.71093,1.14453 2.98242,1.14453 1.29461,0 2.28888,-0.38164 2.98242,-1.14453 0.71666,-0.7629 1.07422,-1.71097 1.07422,-2.84375 0,-1.08655 -0.35756,-2.02258 -1.07422,-2.8086 -0.69354,-0.80913 -1.68781,-1.21289 -2.98242,-1.21289 z m 22.99023,0 c -1.27148,0.0231 -2.26576,0.43893 -2.98242,1.24804 -0.71666,0.78602 -1.07422,1.72205 -1.07422,2.8086 0,1.13278 0.35756,2.08085 1.07422,2.84375 0.71666,0.76289 1.71094,1.14453 2.98242,1.14453 1.29461,0 2.28889,-0.38164 2.98243,-1.14453 0.71666,-0.7629 1.07421,-1.71097 1.07421,-2.84375 0,-1.08655 -0.35755,-2.02258 -1.07421,-2.8086 -0.69354,-0.80913 -1.68782,-1.21289 -2.98243,-1.21289 z"
       sodipodi:nodetypes="ccccccccccccccccscscsccccccccccccccccccccccccccccccccccccccccccscccccccsccscscscccccscccccccccscccscccccscccscccccssccsscccccssccccccscscccccccccccssscsccccccccccccccccsscccccccccccsscscsscscccccsccscscccccccsscscccsccccscscsccscccccccccscccscccccscccscccccssccsscccccsscccccsscscccccccccccccsscscccccccccsccccsccccccssscscccccssscsccc" />
    <path
       d="m 68.579064,127.47386 h -18.02071 v 9.74511 h 17.092605 v 12.83879 H 50.558354 v 10.05447 h 18.02071 v 12.83879 L 34.999901,173 v -58.36493 l 33.579163,0 z"
       id="path79416"
       style="font-size:77.3421px;line-height:1.25;font-family:Futura-Bold;-inkscape-font-specification:Futura-Bold;stroke-width:1.45017"
       sodipodi:nodetypes="ccccccccccccc"
       inkscape:export-filename="C:\Users\Eden\Desktop\eden works and partners.png"
       inkscape:export-xdpi="291.70001"
       inkscape:export-ydpi="291.70001" />
    <path
       d="m 77.937399,172.95102 v -58.31595 h 21.501105 q 12.220056,0.0773 20.882366,8.50764 8.73966,8.43028 8.73966,20.72768 0,12.29739 -8.73966,20.72768 -8.73966,8.35295 -20.882366,8.35295 z m 15.159052,-45.47716 v 32.63837 h 3.403053 q 6.806106,0.0773 11.755996,-3.78976 5.02724,-3.94445 5.02724,-12.45208 0,-7.81155 -4.64053,-12.06537 -4.64052,-4.25381 -11.988022,-4.25381 l -3.557737,-0.0773 z"
       id="path79418"
       style="font-size:77.3421px;line-height:1.25;font-family:Futura-Bold;-inkscape-font-specification:Futura-Bold;stroke-width:1.45017"
       inkscape:export-filename="C:\Users\Eden\Desktop\eden works and partners.png"
       inkscape:export-xdpi="291.70001"
       inkscape:export-ydpi="291.70001" />
    <path
       d="m 169.27834,127.47386 h -18.02071 v 9.74511 h 17.0926 v 12.83879 h -17.0926 v 10.05447 h 18.02071 v 12.83879 h -33.17977 v -58.31595 h 33.17977 z"
       id="path79420"
       style="font-size:77.3421px;line-height:1.25;font-family:Futura-Bold;-inkscape-font-specification:Futura-Bold;stroke-width:1.45017"
       inkscape:export-filename="C:\Users\Eden\Desktop\eden works and partners.png"
       inkscape:export-xdpi="291.70001"
       inkscape:export-ydpi="291.70001" />
    <g
       aria-label="+"
       id="text62272"
       style="font-size:34.677px;line-height:1.25;font-family:Futura-Bold;-inkscape-font-specification:Futura-Bold;fill:#000000;fill-opacity:1;stroke:none;stroke-width:1;stroke-miterlimit:4;stroke-dasharray:none;stroke-opacity:1;paint-order:stroke markers fill"
       transform="matrix(0.85786569,0.85786569,-0.85786569,0.85786569,170.38429,-309.40358)"
       inkscape:export-filename="C:\Users\Eden\Desktop\eden works and partners.png"
       inkscape:export-xdpi="291.70001"
       inkscape:export-ydpi="291.70001">
      <path
         d="m 377.26192,130.40092 v -6.27654 h 5.20155 v 6.27654 H 388.74 v 5.20155 h -6.27653 v 6.31121 h -5.20155 v -6.31121 h -6.27654 v -5.20155 z"
         id="path1285"
         style="fill:#000000;fill-opacity:1;stroke:none;stroke-width:1;stroke-miterlimit:4;stroke-dasharray:none;stroke-opacity:1;paint-order:stroke markers fill" />
    </g>
  </g>
</svg>
