<?xml version="1.0" encoding="UTF-8" standalone="no"?>
<!-- Created with Inkscape (http://www.inkscape.org/) -->

<svg
   width="1024"
   height="768"
   viewBox="0 0 1024 768"
   version="1.1"
   id="svg5"
   inkscape:version="1.1.1 (3bf5ae0d25, 2021-09-20)"
   sodipodi:docname="Envon3.svg"
   inkscape:export-filename="D:\Photos\Screen\envon3.png"
   inkscape:export-xdpi="291.70001"
   inkscape:export-ydpi="291.70001"
   xmlns:inkscape="http://www.inkscape.org/namespaces/inkscape"
   xmlns:sodipodi="http://sodipodi.sourceforge.net/DTD/sodipodi-0.dtd"
   xmlns="http://www.w3.org/2000/svg"
   xmlns:svg="http://www.w3.org/2000/svg">
  <sodipodi:namedview
     id="namedview7"
     pagecolor="#ffffff"
     bordercolor="#666666"
     borderopacity="1.0"
     inkscape:pageshadow="2"
     inkscape:pageopacity="0.0"
     inkscape:pagecheckerboard="0"
     inkscape:document-units="px"
     showgrid="false"
     inkscape:object-paths="true"
     inkscape:zoom="0.73956188"
     inkscape:cx="358.99633"
     inkscape:cy="394.15228"
     inkscape:window-width="1920"
     inkscape:window-height="1009"
     inkscape:window-x="-8"
     inkscape:window-y="-8"
     inkscape:window-maximized="1"
     inkscape:current-layer="text5723" />
  <defs
     id="defs2" />
  <g
     inkscape:label="Layer 1"
     inkscape:groupmode="layer"
     id="layer1">
    <circle
       style="fill:#282828;fill-rule:evenodd;stroke-width:13.6621;stroke-linejoin:round"
       id="path846"
       cx="526.17047"
       cy="385.19727"
       r="313.50021" />
    <path
       style="fill:#ffffff;fill-opacity:1;stroke:none;stroke-width:2.73241px;stroke-linecap:butt;stroke-linejoin:miter;stroke-opacity:1"
       d="M 728.0264,625.06505 C 577.11421,415.24103 377.77133,441.66812 240.35824,514.01402 523.55793,513.20984 497.51329,704.26401 728.0264,625.06505 Z"
       id="path881" />
    <path
       style="fill:none;stroke:none;stroke-width:2.73241px;stroke-linecap:butt;stroke-linejoin:miter;stroke-opacity:1"
       d="M 728.0264,625.06505 C 689.4518,436.14102 628.058,335.55969 528.78293,310.74092 429.50785,285.92215 898.53234,224.86988 728.0264,625.06505"
       id="path1576" />
    <path
       style="fill:#ffffff;fill-opacity:1;stroke:none;stroke-width:2.73241px;stroke-linecap:butt;stroke-linejoin:miter;stroke-opacity:1"
       d="M 728.0264,625.06505 C 640.16521,390.02865 608.46424,312.04718 453.02037,274.1659 697.28931,237.59087 748.31349,267.97617 728.0264,625.06505 Z"
       id="path1776" />
    <g
       aria-label="ENVON"
       id="text5723-0"
       style="font-size:53.3333px;line-height:1.25;font-family:Futura-Bold;-inkscape-font-specification:Futura-Bold;fill:#3f3f3f;fill-opacity:1"
       transform="matrix(2.7324117,0,0,2.7324117,-516.21785,-231.35322)">
      <path
         d="m 301.65462,217.70816 h -12.42666 v 6.72 h 11.78666 v 8.85333 h -11.78666 v 6.93333 h 12.42666 v 8.85333 h -22.87999 v -40.21331 h 22.87999 z"
         id="path8743-7"
         style="fill:#3f3f3f;fill-opacity:1" />
      <path
         d="m 308.1079,249.06815 v -40.21331 h 10.45333 l 19.14666,24.58665 h 0.10666 v -24.58665 h 10.45333 v 40.21331 H 337.81455 L 318.6679,224.42816 h -0.10667 v 24.63999 z"
         id="path8745-8"
         style="fill:#3f3f3f;fill-opacity:1" />
      <path
         d="m 362.24113,208.85484 9.70666,24.42665 9.76,-24.42665 h 11.35999 l -17.17332,40.21331 h -8.10667 l -16.90665,-40.21331 z"
         id="path8747-5"
         style="fill:#3f3f3f;fill-opacity:1" />
      <path
         d="m 415.89441,207.5215 q 8.69333,0.0533 15.46666,5.86667 6.77333,5.75999 6.77333,14.87999 0,9.75999 -6.29333,15.94666 -6.24,6.18666 -15.94666,6.18666 -9.65332,0 -15.94665,-6.18666 -6.29333,-6.18667 -6.29333,-15.94666 0,-9.12 6.77333,-14.87999 6.77333,-5.81333 15.46665,-5.81333 z m 0,10.13333 q -4.69333,0.0533 -8.05332,3.30667 -3.30667,3.19999 -3.30667,7.35999 0,5.17333 3.30667,8.58666 3.35999,3.41333 8.05332,3.41333 4.69333,0 8,-3.41333 3.36,-3.41333 3.36,-8.58666 0,-4.16 -3.36,-7.35999 -3.30667,-3.25334 -8,-3.25334 z"
         id="path8749-0"
         style="fill:#3f3f3f;fill-opacity:1" />
      <path
         d="m 442.98769,249.06815 v -40.21331 h 10.45332 l 19.14666,24.58665 h 0.10667 v -24.58665 h 10.45332 v 40.21331 h -10.45332 l -19.14666,-24.63999 h -0.10667 v 24.63999 z"
         id="path8751-4"
         style="fill:#3f3f3f;fill-opacity:1" />
    </g>
    <path
       style="fill:#3f3f3f;fill-opacity:1;stroke:none;stroke-width:2.73241px;stroke-linecap:butt;stroke-linejoin:miter;stroke-opacity:1"
       d="M 728.0264,625.06505 C 567.20528,423.39547 405.20264,439.05566 240.35824,514.01402 297.57652,321.19095 362.60391,268.18686 453.02037,274.1659 c 105.73889,6.99227 162.05551,23.85403 275.00603,350.89915 z"
       id="path2014"
       sodipodi:nodetypes="ccsc" />
    <g
       aria-label="ENVON"
       id="text5723"
       style="font-size:53.3333px;line-height:1.25;font-family:Futura-Bold;-inkscape-font-specification:Futura-Bold;fill:#ffffff">
      <path
         id="path8743"
         d="m 245.51129,339.32591 v 109.87817 h 62.5146 V 425.01262 H 274.07355 V 406.0672 h 32.20188 v -24.19146 h -32.20188 v -18.35839 h 33.95234 v -24.19144 z m 80.14719,0 v 109.87817 h 28.56225 v -67.32834 h 0.29352 l 52.31606,67.32834 h 28.56226 V 339.32591 h -28.56226 v 67.17891 h -0.29351 l -52.31607,-67.17891 z m 116.87464,0 46.19484,109.87817 h 22.15281 L 557.80674,339.32591 H 526.76291 L 500.09523,406.0672 473.5716,339.32591 Z m 268.68892,0 c 4.86323,12.39627 8.82247,26.52437 11.89561,42.62456 l 52.2627,67.25361 h 28.56226 V 339.32591 h -28.56226 v 67.17891 h -0.29351 l -52.31607,-67.17891 z m -122.07795,4.54157 c -3.88579,2.18492 -7.63878,4.76407 -11.22852,7.845 -12.33834,10.49246 -18.5078,24.04225 -18.5078,40.65531 0,17.77887 5.73099,32.30481 17.19499,43.57448 11.46397,11.26967 25.98991,16.9068 43.57448,16.9068 13.3034,0 24.82092,-3.19395 34.55006,-9.5741 -4.48233,-9.31242 -8.98084,-18.14029 -13.52331,-26.51295 -5.8614,5.67238 -12.86099,8.54414 -21.02675,8.54414 -8.54942,0 -15.8828,-3.11087 -22.00338,-9.32864 -6.02346,-6.21774 -9.0351,-14.03654 -9.0351,-23.4603 0,-7.5779 3.01164,-14.28507 9.0351,-20.11418 3.08935,-2.99134 6.49077,-5.23415 10.19851,-6.74031 -6.13126,-7.83656 -12.53677,-15.04551 -19.22828,-21.79525 z"
         style="stroke-width:2.73241" />
    </g>
  </g>
</svg>
