<?xml version="1.0" encoding="UTF-8" standalone="no"?>
<!-- Created with Inkscape (http://www.inkscape.org/) -->

<svg
   width="210mm"
   height="297mm"
   viewBox="0 0 210 297"
   version="1.1"
   id="svg5"
   sodipodi:docname="Envon2.svg"
   inkscape:version="1.1 (c68e22c387, 2021-05-23)"
   xmlns:inkscape="http://www.inkscape.org/namespaces/inkscape"
   xmlns:sodipodi="http://sodipodi.sourceforge.net/DTD/sodipodi-0.dtd"
   xmlns:xlink="http://www.w3.org/1999/xlink"
   xmlns="http://www.w3.org/2000/svg"
   xmlns:svg="http://www.w3.org/2000/svg">
  <sodipodi:namedview
     id="namedview7"
     pagecolor="#ffffff"
     bordercolor="#666666"
     borderopacity="1.0"
     inkscape:pageshadow="2"
     inkscape:pageopacity="0.0"
     inkscape:pagecheckerboard="0"
     inkscape:document-units="mm"
     showgrid="false"
     inkscape:zoom="0.45254834"
     inkscape:cx="700.47765"
     inkscape:cy="493.86989"
     inkscape:window-width="1920"
     inkscape:window-height="1009"
     inkscape:window-x="-8"
     inkscape:window-y="-8"
     inkscape:window-maximized="1"
     inkscape:current-layer="layer1" />
  <defs
     id="defs2">
    <marker
       style="overflow:visible"
       id="Arrow1Lstart"
       refX="0.0"
       refY="0.0"
       orient="auto"
       inkscape:stockid="Arrow1Lstart"
       inkscape:isstock="true">
      <path
         transform="scale(0.8) translate(12.5,0)"
         style="fill-rule:evenodd;fill:context-stroke;stroke:context-stroke;stroke-width:1.0pt"
         d="M 0.0,0.0 L 5.0,-5.0 L -12.5,0.0 L 5.0,5.0 L 0.0,0.0 z "
         id="path47639" />
    </marker>
    <linearGradient
       inkscape:collect="always"
       id="linearGradient1424">
      <stop
         style="stop-color:#ffaaee;stop-opacity:1"
         offset="0"
         id="stop1420" />
      <stop
         style="stop-color:#afdde9;stop-opacity:1"
         offset="1"
         id="stop1422" />
    </linearGradient>
    <radialGradient
       inkscape:collect="always"
       xlink:href="#linearGradient1424"
       id="radialGradient44524-7"
       cx="122.03921"
       cy="94.760628"
       fx="122.03921"
       fy="94.760628"
       r="42.509701"
       gradientTransform="matrix(1,0,0,0.99357189,0,0.75720907)"
       gradientUnits="userSpaceOnUse" />
    <radialGradient
       inkscape:collect="always"
       xlink:href="#linearGradient1424"
       id="radialGradient64710"
       cx="122.03921"
       cy="94.760628"
       fx="122.03921"
       fy="94.760628"
       r="42.509701"
       gradientTransform="matrix(1,0,0,0.99357189,0,0.75720907)"
       gradientUnits="userSpaceOnUse" />
    <radialGradient
       inkscape:collect="always"
       xlink:href="#linearGradient1424"
       id="radialGradient64727"
       gradientUnits="userSpaceOnUse"
       gradientTransform="matrix(1,0,0,0.99357189,0,0.75720907)"
       cx="122.03921"
       cy="94.760628"
       fx="122.03921"
       fy="94.760628"
       r="42.509701" />
    <radialGradient
       inkscape:collect="always"
       xlink:href="#linearGradient1424"
       id="radialGradient872"
       cx="122.03921"
       cy="94.760628"
       fx="122.03921"
       fy="94.760628"
       r="42.509701"
       gradientTransform="matrix(1,0,0,0.99357189,0,0.75720907)"
       gradientUnits="userSpaceOnUse" />
    <radialGradient
       inkscape:collect="always"
       xlink:href="#linearGradient1424"
       id="radialGradient44524-7-3"
       cx="122.03921"
       cy="94.760628"
       fx="122.03921"
       fy="94.760628"
       r="42.509701"
       gradientTransform="matrix(1,0,0,0.99357189,0,0.75720907)"
       gradientUnits="userSpaceOnUse" />
    <radialGradient
       inkscape:collect="always"
       xlink:href="#linearGradient1424"
       id="radialGradient64727-1"
       gradientUnits="userSpaceOnUse"
       gradientTransform="matrix(1,0,0,0.99357189,0,0.75720907)"
       cx="122.03921"
       cy="94.760628"
       fx="122.03921"
       fy="94.760628"
       r="42.509701" />
  </defs>
  <g
     inkscape:label="Layer 1"
     inkscape:groupmode="layer"
     id="layer1">
    <text
       xml:space="preserve"
       style="font-style:normal;font-weight:normal;font-size:10.5833px;line-height:1.25;font-family:'Futura Bk BT';fill:#000000;fill-opacity:1;stroke:none;stroke-width:0.264583;-inkscape-font-specification:'Futura Bk BT';font-stretch:normal;font-variant:normal"
       x="77.493927"
       y="98.038834"
       id="text8514"><tspan
         sodipodi:role="line"
         id="tspan8512"
         style="stroke-width:0.264583;-inkscape-font-specification:'Futura Bk BT';font-family:'Futura Bk BT';font-weight:normal;font-style:normal;font-stretch:normal;font-variant:normal" /></text>
    <text
       xml:space="preserve"
       style="font-style:normal;font-weight:normal;font-size:10.5833px;line-height:1.25;font-family:Futura-Black;fill:#000000;fill-opacity:1;stroke:none;stroke-width:0.264583;-inkscape-font-specification:Futura-Black;font-stretch:normal;font-variant:normal"
       x="82.90049"
       y="94.074028"
       id="text11444"><tspan
         sodipodi:role="line"
         id="tspan11442"
         style="stroke-width:0.264583;-inkscape-font-specification:Futura-Black;font-family:Futura-Black;font-weight:normal;font-style:normal;font-stretch:normal;font-variant:normal"
         x="82.90049"
         y="94.074028" /></text>
    <path
       id="path884-8-0-8"
       style="fill-rule:evenodd;stroke-width:5.13501;stroke-linecap:square;stroke-linejoin:round;paint-order:markers stroke fill"
       d="m 201.89707,149.06559 c 0,33.20524 -18.27682,46.31442 -43.62725,46.31442 -28.24431,0 -45.90101,-20.55058 -45.90101,-45.90101 0,-25.35042 21.37741,-45.901 45.90101,-45.901 25.35042,0 43.62725,17.03658 43.62725,45.48759 z"
       sodipodi:nodetypes="sssss"
       inkscape:export-filename="D:\Vector\AE\all.png"
       inkscape:export-xdpi="291.70001"
       inkscape:export-ydpi="291.70001" />
    <g
       aria-label="E"
       id="text15364"
       style="font-size:95.1918px;line-height:1.25;font-family:Futura-Bold;-inkscape-font-specification:Futura-Bold;fill:#ffcc00;fill-opacity:1;stroke:none;stroke-width:2.3798;paint-order:markers fill stroke"
       inkscape:export-filename="D:\Vector\AE\all.png"
       inkscape:export-xdpi="291.70001"
       inkscape:export-ydpi="291.70001"
       transform="translate(52.519074,-68.022867)">
      <path
         d="M 138.84382,112.99172 C 135.52738,94.442438 119.64647,80.013295 98.258312,84.001064 l 2e-6,32.857806 49.845636,-2.8e-4 c 0.28306,1.5742 0.31726,3.1484 0,4.7226 H 98.258312 v 30.08866 c 22.211858,4.48439 35.782118,-10.3603 40.533168,-26.37876 l 8.42928,0.0113 c -7.76063,31.1167 -43.87971,48.32326 -71.719963,21.27051 C 64.033123,135.42961 56.626316,105.88456 76.168886,87.213992 101.30477,63.199695 142.56581,76.255394 148.06888,112.85562 Z"
         id="path38633"
         sodipodi:nodetypes="cccccccccsscc"
         style="fill:#ffcc00;fill-opacity:1;stroke:none;paint-order:markers fill stroke" />
    </g>
    <text
       xml:space="preserve"
       style="font-size:10.5833px;line-height:1.25;font-family:Futura-Bold;-inkscape-font-specification:Futura-Bold;stroke-width:0.264583"
       x="155.33369"
       y="53.961823"
       id="text50382"
       inkscape:export-filename="D:\Vector\AE\all.png"
       inkscape:export-xdpi="291.70001"
       inkscape:export-ydpi="291.70001"><tspan
         sodipodi:role="line"
         id="tspan50380"
         style="stroke-width:0.264583"
         x="155.33369"
         y="53.961823">envon</tspan></text>
    <path
       id="path57450"
       style="fill:#000000;stroke:#000000;stroke-width:0.264583px;stroke-linecap:butt;stroke-linejoin:miter;stroke-opacity:1"
       d="m 142.02266,18.586832 c -23.04769,15.709631 -22.06736,48.267051 -0.1639,62.346851 0,-4.09596 0.0601,-7.36889 0.0601,-10.95387 -17.25992,-13.45363 -16.60682,-39.992424 0.10376,-51.392981 z"
       sodipodi:nodetypes="cccc"
       inkscape:export-filename="D:\Vector\AE\all.png"
       inkscape:export-xdpi="291.70001"
       inkscape:export-ydpi="291.70001" />
    <path
       style="fill:#000000;fill-opacity:1;stroke:#000000;stroke-width:0.265;stroke-linecap:butt;stroke-linejoin:miter;stroke-miterlimit:4;stroke-dasharray:none;stroke-opacity:1"
       d="m 142.02266,18.586832 c -14.56391,9.711272 -17.90085,32.934811 -0.10375,47.885071 l 0.0671,-12.62474 c -15.03533,-1.60131 -14.20784,-25.589904 0.0366,-35.260331 z"
       id="path61112"
       sodipodi:nodetypes="cccc"
       inkscape:export-filename="D:\Vector\AE\all.png"
       inkscape:export-xdpi="291.70001"
       inkscape:export-ydpi="291.70001" />
    <g
       aria-label="E"
       id="text15364-1"
       style="font-size:95.1918px;line-height:1.25;font-family:Futura-Bold;-inkscape-font-specification:Futura-Bold;fill:#ffcc00;fill-opacity:1;stroke:none;stroke-width:2.3798;paint-order:markers fill stroke"
       inkscape:export-filename="D:\Vector\AE\all.png"
       inkscape:export-xdpi="291.70001"
       inkscape:export-ydpi="291.70001"
       transform="translate(161.24629,-68.022867)">
      <path
         d="M 138.84382,112.99172 C 135.52738,94.442438 119.64647,80.013295 98.258312,84.001064 78.406906,88.615345 82.269685,117.46988 100.63543,116.85887 l 47.46852,-2.8e-4 c 0.28306,1.5742 0.31726,3.1484 0,4.7226 -70.628371,0.22767 42.05938,36.00335 -70.929622,0 0.819697,14.24233 4.948474,26.23921 21.083984,30.08866 22.211858,4.48439 35.782118,-10.3603 40.533168,-26.37876 l 8.42928,0.0113 c -7.76063,31.1167 -43.87971,48.32326 -71.719963,21.27051 C 64.033123,135.42961 56.626316,105.88456 76.168886,87.213992 101.30477,63.199695 142.56581,76.255394 148.06888,112.85562 Z"
         id="path38633-4"
         sodipodi:nodetypes="cccccccccsscc"
         style="fill:#ffcc00;fill-opacity:1;stroke:none;paint-order:markers fill stroke" />
    </g>
    <text
       xml:space="preserve"
       style="font-size:10.5833px;line-height:1.25;font-family:Futura-Bold;-inkscape-font-specification:Futura-Bold;stroke-width:0.264583"
       x="264.06091"
       y="53.961819"
       id="text50382-6"
       inkscape:export-filename="D:\Vector\AE\all.png"
       inkscape:export-xdpi="291.70001"
       inkscape:export-ydpi="291.70001"><tspan
         sodipodi:role="line"
         id="tspan50380-7"
         style="stroke-width:0.264583"
         x="264.06091"
         y="53.961819">envon</tspan></text>
    <g
       aria-label="E"
       id="text15364-6"
       style="font-size:95.1918px;line-height:1.25;font-family:Futura-Bold;-inkscape-font-specification:Futura-Bold;fill:url(#radialGradient44524-7);fill-opacity:1;stroke:none;stroke-width:0.6;paint-order:markers fill stroke;stroke-opacity:1;stroke-miterlimit:4;stroke-dasharray:none"
       transform="translate(52.519161,31.977163)"
       inkscape:export-filename="D:\Vector\AE\all.png"
       inkscape:export-xdpi="291.70001"
       inkscape:export-ydpi="291.70001">
      <path
         d="M 138.113,109.04532 C 134.00929,96.826248 127.111,89.788878 117.39736,84.976201 98.704552,75.714748 70.267931,96.763406 79.695432,118.17405 c 8.007397,18.18547 56.559898,0.73783 42.825858,11.66535 -15.12202,12.03185 -10.2885,24.12735 -0.87699,19.05336 9.6288,-5.19115 11.2274,-8.4459 16.56253,-19.21678 1.45794,-2.94336 7.74723,-4.51532 6.52916,1.54601 -5.03128,25.0366 -40.51796,39.33423 -69.235193,15.35091 -12.272869,-10.24974 -18.874481,-40.68834 0.668089,-59.358908 25.135884,-24.014297 63.934984,-13.639255 68.830564,21.695228 0.71118,5.13301 -5.12516,5.38047 -6.88645,0.1361 z"
         id="path38633-2"
         sodipodi:nodetypes="sssssssssss"
         style="fill:url(#radialGradient64727);fill-opacity:1;stroke:none;paint-order:markers fill stroke;stroke-opacity:1;stroke-width:0.6;stroke-miterlimit:4;stroke-dasharray:none" />
    </g>
    <g
       aria-label="E"
       id="text15364-6-5"
       style="font-size:95.1918px;line-height:1.25;font-family:Futura-Bold;-inkscape-font-specification:Futura-Bold;fill:#000000;fill-opacity:1;stroke:none;stroke-width:2.3798;paint-order:markers fill stroke"
       transform="translate(-49.881232,31.977163)"
       inkscape:export-filename="D:\Vector\AE\all.png"
       inkscape:export-xdpi="291.70001"
       inkscape:export-ydpi="291.70001">
      <path
         d="m 138.84382,112.99172 -40.585588,-28.990656 -9.8e-5,32.857526 h 49.845816 c 0.28306,1.5742 0.31726,3.1484 0,4.7226 H 98.258232 v 30.08866 l 40.533248,-26.37876 8.42928,0.0113 c -5.13711,20.59756 -22.57201,34.07537 -41.93257,33.66571 -9.887405,-0.20922 -20.277047,-4.04047 -29.787393,-12.3952 -12.012921,-10.55321 -18.874484,-40.68834 0.668089,-59.358908 8.695969,-8.307947 19.321913,-12.17909 29.729514,-12.173476 19.6758,0.01061 38.57124,13.877032 42.17048,37.815104 z"
         id="path38633-2-5"
         sodipodi:nodetypes="cccccccccsssccc"
         style="fill:#000000;fill-opacity:1;stroke:none;paint-order:markers fill stroke" />
    </g>
    <g
       aria-label="E"
       id="text15364-3"
       style="font-size:95.1918px;line-height:1.25;font-family:Futura-Bold;-inkscape-font-specification:Futura-Bold;mix-blend-mode:normal;fill:#000000;fill-opacity:1;stroke:none;stroke-width:2.3798;paint-order:markers fill stroke"
       inkscape:export-filename="D:\Vector\AE\all.png"
       inkscape:export-xdpi="291.70001"
       inkscape:export-ydpi="291.70001"
       transform="translate(-49.881232,-68.022867)">
      <path
         d="M 138.84382,112.99172 C 135.52738,94.442438 119.64639,80.013295 98.258232,84.001064 v 32.857806 l 49.845718,-2.8e-4 c 0.28306,1.5742 0.31726,3.1484 0,4.7226 H 98.258232 v 30.08866 c 22.211858,4.48439 35.782198,-10.3603 40.533248,-26.37876 l 8.42928,0.0113 c -6.299,34.33229 -44.82172,48.75936 -72.596941,23.90145 C 61.654457,137.59668 57.503294,105.00758 76.168886,87.213992 101.3311,63.227284 142.56581,76.255394 148.06888,112.85562 Z"
         id="path38633-5"
         sodipodi:nodetypes="cccccccccsscc"
         style="fill:#000000;fill-opacity:1;stroke:none;paint-order:markers fill stroke" />
    </g>
    <text
       xml:space="preserve"
       style="font-size:10.5833px;line-height:1.25;font-family:Futura-Bold;-inkscape-font-specification:Futura-Bold;stroke-width:0.264583;fill:#ffffff"
       x="52.933384"
       y="53.961815"
       id="text50382-2"
       inkscape:export-filename="D:\Vector\AE\all.png"
       inkscape:export-xdpi="291.70001"
       inkscape:export-ydpi="291.70001"><tspan
         sodipodi:role="line"
         id="tspan50380-66"
         style="stroke-width:0.264583;fill:#ffffff"
         x="52.933384"
         y="53.961815">envon</tspan></text>
    <path
       id="path57450-5"
       style="fill:#ffffff;stroke:#ffffff;stroke-width:0.264583px;stroke-linecap:butt;stroke-linejoin:miter;stroke-opacity:1"
       d="m 39.622352,18.586831 c -23.04769,15.709632 -22.067356,48.267052 -0.16389,62.346852 0,-4.09596 0.0601,-7.36889 0.0601,-10.95387 -17.259931,-13.45362 -16.606826,-39.992422 0.10375,-51.392982 z"
       sodipodi:nodetypes="cccc"
       inkscape:export-filename="D:\Vector\AE\all.png"
       inkscape:export-xdpi="291.70001"
       inkscape:export-ydpi="291.70001" />
    <path
       style="fill:#ffffff;fill-opacity:1;stroke:#ffffff;stroke-width:0.265;stroke-linecap:butt;stroke-linejoin:miter;stroke-miterlimit:4;stroke-dasharray:none;stroke-opacity:1"
       d="m 39.622352,18.586831 c -14.563908,9.71127 -17.900848,32.934812 -0.10375,47.885072 l 0.0671,-12.62474 c -15.035333,-1.60131 -14.207834,-25.589902 0.0366,-35.260332 z"
       id="path61112-0"
       sodipodi:nodetypes="cccc"
       inkscape:export-filename="D:\Vector\AE\all.png"
       inkscape:export-xdpi="291.70001"
       inkscape:export-ydpi="291.70001" />
    <circle
       style="mix-blend-mode:normal;fill:#000000;fill-opacity:1;fill-rule:evenodd;stroke:none;stroke-width:5.13501;stroke-linecap:square;stroke-linejoin:round;stroke-miterlimit:4;stroke-dasharray:none;stroke-dashoffset:0;stroke-opacity:1;paint-order:markers stroke fill"
       id="path884-8-0"
       r="45.901009"
       cy="149.47949"
       cx="267.18604"
       inkscape:export-filename="D:\Vector\AE\all.png"
       inkscape:export-xdpi="291.70001"
       inkscape:export-ydpi="291.70001" />
    <g
       aria-label="E"
       id="text15364-6-4"
       style="font-size:95.1918px;line-height:1.25;font-family:Futura-Bold;-inkscape-font-specification:Futura-Bold;fill:url(#radialGradient44524-7-3);fill-opacity:1;stroke:none;stroke-width:2.3798;paint-order:markers fill stroke"
       transform="translate(161.21761,31.977108)"
       inkscape:export-filename="D:\Vector\AE\all.png"
       inkscape:export-xdpi="291.70001"
       inkscape:export-ydpi="291.70001">
      <path
         d="M 138.84382,112.99172 C 135.52738,94.442438 119.64638,80.013295 98.258225,84.001064 c -9.544561,2.557457 -8.870652,9.474968 -8.88134,14.155726 l -0.09445,41.36133 c -0.0092,4.01777 0.42962,9.58112 8.975785,12.15173 22.211865,4.48439 35.782205,-10.3603 40.533255,-26.37876 l 8.42928,0.0113 c -7.76063,31.1167 -43.58738,45.98465 -71.719963,21.27051 C 63.487877,136.01969 56.626316,105.88456 76.168886,87.213992 101.30477,63.199695 142.56581,76.255394 148.06888,112.85562 Z"
         id="path38633-2-7"
         sodipodi:nodetypes="ccsscccsscc"
         style="fill:url(#radialGradient64727-1);fill-opacity:1;stroke:none;paint-order:markers fill stroke" />
    </g>
    <path
       d="m 259.47593,148.83598 49.84563,-2.8e-4 c 0.28306,1.5742 0.31726,3.1484 0,4.7226 h -49.84564 z"
       id="path38633-6"
       sodipodi:nodetypes="ccccc"
       style="font-size:95.1918px;line-height:1.25;font-family:Futura-Bold;-inkscape-font-specification:Futura-Bold;fill:#ffcc00;fill-opacity:1;stroke:none;stroke-width:2.3798;paint-order:markers fill stroke"
       inkscape:export-filename="D:\Vector\AE\all.png"
       inkscape:export-xdpi="291.70001"
       inkscape:export-ydpi="291.70001" />
  </g>
</svg>
