<?xml version="1.0" encoding="UTF-8" standalone="no"?>
<!-- Created with Inkscape (http://www.inkscape.org/) -->

<svg
   width="210mm"
   height="297mm"
   viewBox="0 0 210 297"
   version="1.1"
   id="svg5"
   sodipodi:docname="EnvonSea.svg"
   inkscape:version="1.1 (c68e22c387, 2021-05-23)"
   xmlns:inkscape="http://www.inkscape.org/namespaces/inkscape"
   xmlns:sodipodi="http://sodipodi.sourceforge.net/DTD/sodipodi-0.dtd"
   xmlns:xlink="http://www.w3.org/1999/xlink"
   xmlns="http://www.w3.org/2000/svg"
   xmlns:svg="http://www.w3.org/2000/svg">
  <sodipodi:namedview
     id="namedview7"
     pagecolor="#ffffff"
     bordercolor="#666666"
     borderopacity="1.0"
     inkscape:pageshadow="2"
     inkscape:pageopacity="0.0"
     inkscape:pagecheckerboard="0"
     inkscape:document-units="mm"
     showgrid="false"
     inkscape:object-paths="false"
     inkscape:snap-intersection-paths="false"
     inkscape:snap-smooth-nodes="false"
     inkscape:snap-midpoints="false"
     inkscape:object-nodes="false"
     inkscape:zoom="1.28"
     inkscape:cx="432.03125"
     inkscape:cy="378.51563"
     inkscape:window-width="1920"
     inkscape:window-height="1009"
     inkscape:window-x="-8"
     inkscape:window-y="-8"
     inkscape:window-maximized="1"
     inkscape:current-layer="layer1" />
  <defs
     id="defs2">
    <inkscape:path-effect
       effect="spiro"
       id="path-effect1643"
       is_visible="true"
       lpeversion="1" />
    <inkscape:path-effect
       effect="spiro"
       id="path-effect1639"
       is_visible="true"
       lpeversion="1" />
    <linearGradient
       inkscape:collect="always"
       id="linearGradient91969">
      <stop
         style="stop-color:#000000;stop-opacity:1;"
         offset="0"
         id="stop91965" />
      <stop
         style="stop-color:#000000;stop-opacity:0;"
         offset="1"
         id="stop91967" />
    </linearGradient>
    <linearGradient
       inkscape:collect="always"
       id="linearGradient37172">
      <stop
         style="stop-color:#9a9a9a;stop-opacity:1"
         offset="0"
         id="stop37168" />
      <stop
         style="stop-color:#fcffff;stop-opacity:1"
         offset="1"
         id="stop37170" />
    </linearGradient>
    <linearGradient
       inkscape:collect="always"
       id="linearGradient9335">
      <stop
         style="stop-color:#ddf6fe;stop-opacity:1"
         offset="0"
         id="stop9331" />
      <stop
         style="stop-color:#ffdf00;stop-opacity:1"
         offset="1"
         id="stop9333" />
    </linearGradient>
    <linearGradient
       inkscape:collect="always"
       id="linearGradient8355-3">
      <stop
         style="stop-color:#dfb3df;stop-opacity:1"
         offset="0"
         id="stop8351" />
      <stop
         style="stop-color:#72d8d8;stop-opacity:1"
         offset="1"
         id="stop8353" />
    </linearGradient>
    <linearGradient
       inkscape:collect="always"
       xlink:href="#linearGradient8355-3"
       id="linearGradient8357"
       x1="122.43894"
       y1="63.761765"
       x2="97.137741"
       y2="97.498177"
       gradientUnits="userSpaceOnUse"
       gradientTransform="rotate(-1.9746727,107.17421,90.022521)" />
    <linearGradient
       inkscape:collect="always"
       xlink:href="#linearGradient9335"
       id="linearGradient9337"
       x1="143.77701"
       y1="78.071915"
       x2="116.12471"
       y2="88.403557"
       gradientUnits="userSpaceOnUse"
       gradientTransform="rotate(-1.9746727,107.04677,82.628192)" />
    <linearGradient
       inkscape:collect="always"
       xlink:href="#linearGradient37172"
       id="linearGradient36525"
       x1="467.6716"
       y1="370.38049"
       x2="449.85095"
       y2="310.1756"
       gradientUnits="userSpaceOnUse"
       gradientTransform="matrix(0.26442621,-0.00911694,0.00911694,0.26442621,-2.7836099,3.7376555)" />
    <linearGradient
       inkscape:collect="always"
       xlink:href="#linearGradient37172"
       id="linearGradient38432"
       gradientUnits="userSpaceOnUse"
       x1="490.06781"
       y1="363.87836"
       x2="472.72885"
       y2="281.5181"
       gradientTransform="matrix(0.26442621,-0.00911694,0.00911694,0.26442621,-2.7836099,3.7376555)" />
    <linearGradient
       inkscape:collect="always"
       xlink:href="#linearGradient91969"
       id="linearGradient91971"
       x1="91.130226"
       y1="83.129707"
       x2="110.48174"
       y2="63.452599"
       gradientUnits="userSpaceOnUse" />
  </defs>
  <g
     inkscape:label="Layer 1"
     inkscape:groupmode="layer"
     id="layer1">
    <path
       style="fill:url(#linearGradient8357);fill-opacity:1;stroke:#b9b9b9;stroke-width:0.264583px;stroke-linecap:butt;stroke-linejoin:miter;stroke-opacity:1"
       d="m 111.01877,112.45758 c -19.838087,0.36951 -30.317212,-8.91417 -30.421422,-29.107445 -0.1048,-20.307417 11.718207,-28.999784 28.418732,-30.043237 13.31206,-0.831741 24.99425,3.234752 29.30877,15.246927 0.74318,3.53301 1.58627,6.889239 1.91449,14.368088 -1.07463,-9.005968 -5.83476,-14.585833 -15.17774,-13.207427 -9.76082,1.440051 -18.4533,9.618023 -12.83633,21.730982 3.26643,7.300463 15.09933,10.727522 22.80579,4.436345 4.2287,-3.452105 5.33649,-6.748255 5.20828,-12.9599 0.0168,6.439345 -0.81578,10.775631 -1.45251,13.971198 -1.90123,9.541689 -12.56422,15.281289 -27.76806,15.564469 z"
       id="path3637"
       sodipodi:nodetypes="sssccscscss" />
    <path
       style="mix-blend-mode:color-burn;fill:url(#linearGradient9337);fill-opacity:1;stroke:#e9e9e9;stroke-width:0.264583px;stroke-linecap:butt;stroke-linejoin:miter;stroke-opacity:1"
       d="m 138.32485,68.553825 c -1.21612,6.061073 -14.92746,12.527286 -27.92638,14.572474 -0.90443,0.155478 -2.48158,0.711844 -2.50641,1.24076 -0.0333,0.710215 1.40673,1.08146 2.6639,1.391945 9.51889,1.663872 27.98738,4.086909 28.23087,11.134107 0.37798,-1.341137 1.35301,-6.527122 1.45707,-12.437257 0.10402,-5.907949 -1.18427,-12.556862 -1.91905,-15.902029 z"
       id="path6255"
       sodipodi:nodetypes="ccsccsc" />
    <path
       style="fill:url(#linearGradient36525);fill-opacity:1;fill-rule:evenodd;stroke:#ff5555;stroke-width:0;stroke-opacity:1;paint-order:stroke fill markers"
       d="m 121.17036,98.55988 c -3.248,-0.951359 -5.96954,-2.609076 -7.69803,-5.015995 -1.09526,-1.525146 -1.79851,-3.390756 -2.39379,-5.157764 -0.37446,-1.111541 -0.45429,-1.925841 -0.52741,-2.62831 1.3231,0.220935 3.91692,0.651816 5.39677,0.916442 3.15925,0.564933 8.11004,1.531237 9.79932,1.986516 6.94476,1.871682 6.72845,2.101677 8.45764,2.839645 1.83391,0.782656 3.14606,2.138293 3.14606,2.138293 l -0.21337,0.277654 c 0,0 -1.38616,1.358187 -2.01967,1.871205 -1.91686,1.552275 -4.03111,2.686942 -6.57888,3.108538 -2.44901,0.337892 -4.98083,0.321225 -7.3686,-0.336224 z"
       id="path32407"
       sodipodi:nodetypes="csscssscssccc" />
    <path
       style="fill:#fcffff;fill-opacity:1;fill-rule:evenodd;stroke:#ff5555;stroke-width:0;stroke-opacity:1;paint-order:stroke fill markers"
       d="m 112.1947,78.542346 c 2.05043,-4.089573 6.21934,-7.078488 11.66532,-8.363495 1.14119,-0.269271 1.84049,-0.349258 3.52517,-0.403213 2.30458,-0.07382 3.26739,0.04863 4.92071,0.625916 0.92281,0.3222 2.59453,1.256973 2.93781,1.642735 0.23517,0.264278 0.0539,0.399654 -2.05327,1.533 -3.40692,1.832454 -8.30551,3.347125 -15.51823,4.798318 -1.86199,0.374634 -5.50013,1.028208 -5.7766,1.037741 -0.0771,0.0026 0.0576,-0.389295 0.29909,-0.871002 z"
       id="path37550"
       sodipodi:nodetypes="csssscscc" />
    <path
       style="fill:url(#linearGradient38432);fill-opacity:1;fill-rule:evenodd;stroke:#ff5555;stroke-width:0;stroke-opacity:1;paint-order:stroke fill markers"
       d="m 110.49089,83.111685 c 0.1209,-1.299497 0.27155,-2.653833 1.1848,-4.506255 1.44432,-2.604587 4.72225,-5.804889 7.77236,-7.24481 2.91156,-1.374514 6.50472,-1.982459 9.36997,-1.819109 2.04996,0.116867 2.96061,0.319008 4.50471,1.179393 0.75703,0.421821 1.72877,1.094763 2.54853,1.818159 -1.06007,0.921971 -3.18767,2.550739 -4.24178,3.225052 -3.73511,2.38935 -5.36551,3.616869 -13.98219,5.791395 -2.82931,0.714012 -6.5033,1.450101 -7.1564,1.556175 z"
       id="path37628"
       sodipodi:nodetypes="ccssscssc" />
    <text
       xml:space="preserve"
       style="font-style:normal;font-weight:normal;font-size:8.81944px;line-height:1.25;font-family:sans-serif;fill:url(#linearGradient91971);fill-opacity:1;stroke:none;stroke-width:0.264583"
       x="82.354172"
       y="84.212578"
       id="text85187"><tspan
         sodipodi:role="line"
         id="tspan85185"
         style="font-style:normal;font-variant:normal;font-weight:normal;font-stretch:normal;font-size:8.81944px;font-family:'Britannic Bold';-inkscape-font-specification:'Britannic Bold, Normal';font-variant-ligatures:normal;font-variant-caps:normal;font-variant-numeric:normal;font-variant-east-asian:normal;stroke-width:0.264583;fill-opacity:1;fill:url(#linearGradient91971)"
         x="82.354172"
         y="84.212578">Envon</tspan></text>
    <path
       style="fill:none;stroke:#000000;stroke-width:0.264583px;stroke-linecap:butt;stroke-linejoin:miter;stroke-opacity:1"
       d="m 83.612468,99.322103 c 0.536763,-1.849847 1.567184,-3.553986 2.955962,-4.888656 1.388778,-1.334671 3.1325,-2.296591 5.002207,-2.759456 2.174577,-0.538339 4.494075,-0.398895 6.631772,0.271065 2.137701,0.669961 4.096231,1.857935 5.770571,3.346284 1.36766,1.215735 2.55797,2.6347 4.03076,3.720703 2.17676,1.605097 4.94958,2.405977 7.63978,2.127717 2.6902,-0.27825 5.26566,-1.651892 6.93298,-3.781363 0.94909,-1.21216 1.60144,-2.638716 2.58382,-3.824054 1.74668,-2.107528 4.53438,-3.307026 7.26566,-3.12628 2.73128,0.180746 5.33661,1.737135 6.79033,4.056454"
       id="path1637"
       inkscape:path-effect="#path-effect1639"
       inkscape:original-d="m 83.612468,99.322103 c 2.652987,-2.549107 5.30571,-5.098478 7.958169,-7.648112 2.652458,-2.549636 8.268494,2.411831 12.402343,3.617349 4.13385,1.205518 2.68744,2.480733 4.03076,3.720703 1.34332,1.239967 9.71544,-1.102167 14.57276,-1.653646 4.85732,-0.551479 1.72281,-2.549107 2.58382,-3.824054 0.86101,-1.274951 9.37092,0.620381 14.05599,0.930174" />
    <path
       style="fill:none;stroke:#000000;stroke-width:0.264583px;stroke-linecap:butt;stroke-linejoin:miter;stroke-opacity:1"
       d="m 80.718588,88.05664 c 0.924648,3.026032 2.801265,5.753568 5.296916,7.698708 2.495651,1.94514 5.598859,3.098938 8.759073,3.256695 3.416739,0.170563 6.787303,-0.790119 10.006903,-1.946571 3.2196,-1.156452 6.3843,-2.523854 9.73349,-3.221072 8.13878,-1.694291 17.05304,0.955893 22.94434,6.82129"
       id="path1641"
       inkscape:path-effect="#path-effect1643"
       inkscape:original-d="m 80.718588,88.05664 c 4.685593,3.652064 9.370922,7.303867 14.055989,10.955403 4.685064,3.651537 13.160533,-3.44483 19.740393,-5.167643 6.57987,-1.722813 15.29649,4.54779 22.94434,6.82129" />
  </g>
</svg>
